<svg width="300" height="300" viewBox="0 0 300 300" fill="none" xmlns="http://www.w3.org/2000/svg">
<path d="M110.886 248.466C113.181 247.468 114.897 246.402 116.032 245.269C155.406 206.019 193.78 167.369 234.536 127.816C242.321 120.263 249.974 112.365 257.764 104.711C262.068 100.48 266.216 96.1028 270.206 91.5785C273.392 87.9715 275.775 83.9365 276.585 79.0577C277.605 72.9092 276.744 67.2361 274 62.0384C272.04 58.3303 269.17 55.4898 265.989 52.3284C254.542 40.9623 246.095 32.7023 240.647 27.5481C237.542 24.6086 233.887 22.7625 229.682 22.0097C219.962 20.2626 211.499 23.2814 204.596 30.0499C188.984 45.3578 173.731 61.0143 158.837 77.0194C151.797 84.5783 144.573 91.9351 137.479 99.4345C131.827 105.407 125.347 111.884 119.296 118.124C109.058 128.683 98.4921 138.81 88.5219 149.738C85.4189 153.143 81.8632 156.061 78.6709 159.442C72.2207 166.276 65.6454 173.003 59.1952 179.836C57.1543 181.996 55.0697 184.111 52.9415 186.183C51.8178 187.276 51.0892 188.307 50.7557 189.273C48.4746 195.857 46.0148 204.587 43.6563 212.039C39.7849 224.237 36.0824 236.488 32.5485 248.793C30.0113 257.606 27.1406 266.644 24.5736 275.618C24.3116 276.539 23.5969 277.828 23.3229 278.993C23.2435 279.314 23.3606 279.419 23.6743 279.308C33.5074 275.784 43.2096 272.195 53.2333 268.843C63.9301 265.266 74.5732 261.53 85.1628 257.636C93.5785 254.54 104.168 251.384 110.886 248.466Z" stroke="#818178" stroke-width="2"/>
<path d="M229.038 91.8636C232.564 95.7738 236.378 99.5572 240.479 103.214C240.565 103.29 240.677 103.331 240.791 103.328C240.906 103.324 241.014 103.277 241.093 103.196C247.041 97.1188 252.917 91.1584 258.722 85.315C262.826 81.179 265.548 75.6465 263.189 69.8585C262.165 67.331 261.105 65.5007 260.009 64.3677" stroke="#5D5C57" stroke-width="2"/>
<path d="M260.01 64.3676C255.358 58.8055 250.403 55.0855 245.609 50.2839C241.737 46.4055 237.844 42.5409 233.929 38.6901C228.486 33.324 220.129 32.7179 214.275 38.1434C208.228 43.7492 202.901 48.9449 198.295 53.7306C197.491 54.5625 196.276 55.5014 195.335 56.577C195.127 56.815 195.017 57.1234 195.028 57.4399C195.039 57.7564 195.17 58.0576 195.395 58.2825L229.039 91.8636" stroke="#818178" stroke-width="2"/>
<path d="M260.009 64.3678C258.607 63.9241 257.595 63.9875 256.971 64.558C254.094 67.1727 251.641 70.3757 248.961 72.8002C246.721 74.8326 245.246 76.2152 244.535 76.9481C239.258 82.3637 234.97 86.4977 231.671 89.3501C230.781 90.1147 229.904 90.9526 229.038 91.8638" stroke="#CDCDC1" stroke-width="2"/>
<path d="M204.947 105.656C206.865 107.861 209.396 109.959 211.147 111.753C214.268 114.946 217.478 118.048 220.778 121.059C221.314 121.546 221.779 121.917 222.172 122.17C222.696 122.507 223.17 122.448 223.595 121.992L231.195 113.803C231.771 113.185 231.759 112.579 231.159 111.985L215.894 96.8435" stroke="#5D5C57" stroke-width="2"/>
<path d="M215.895 96.8436L185.776 67.2678C185.692 67.1854 185.579 67.1392 185.462 67.1392C185.345 67.1392 185.233 67.1854 185.151 67.2678L176.134 76.2587C175.969 76.4235 175.875 76.6457 175.871 76.8778C175.868 77.1099 175.956 77.3335 176.116 77.5007C177.923 79.3905 179.691 81.2544 181.423 83.0926C185.973 87.9179 190.892 92.4461 195.598 97.1526C196.979 98.5352 200.096 101.37 204.948 105.656" stroke="#818178" stroke-width="2"/>
<path d="M215.894 96.8435C215.676 97.2199 214.997 97.0753 213.857 96.4097C213.746 96.3464 213.617 96.3213 213.49 96.3385C213.363 96.3557 213.245 96.4141 213.154 96.5048C211.157 98.4896 209.156 100.526 207.151 102.614C206.516 103.271 206.063 104.161 205.793 105.282C205.69 105.706 205.408 105.831 204.947 105.656" stroke="#CDCDC1" stroke-width="2"/>
<path d="M70.6535 188.043L105.906 196.761C106.093 196.809 106.254 196.761 106.389 196.618C119.635 182.582 133.47 169.093 146.942 155.271C151.647 150.439 156.216 145.774 161.29 140.919C164.429 137.918 167.687 134.288 170.355 131.613C177.117 124.831 183.76 117.973 190.283 111.041C190.373 110.946 190.421 110.821 190.419 110.692C190.417 110.563 190.364 110.44 190.271 110.351L168.02 88.9463C167.974 88.9016 167.919 88.8677 167.858 88.8474C167.798 88.827 167.733 88.8205 167.669 88.8285C167.605 88.8365 167.543 88.8587 167.489 88.8935C167.434 88.9283 167.388 88.9747 167.353 89.0295C167.103 89.4376 166.763 89.8654 166.335 90.3131C160.307 96.624 154.246 102.901 148.151 109.145C144.411 112.984 140.546 116.692 136.841 120.566C134.798 122.7 132.309 124.833 130.147 127.085C123.006 134.549 115.471 141.579 108.318 149.025C102.916 154.647 97.1452 159.953 91.6718 165.456C85.5491 171.612 79.4086 177.858 73.0656 183.794C72.0571 184.737 71.12 185.779 70.2544 186.92C70.1829 187.014 70.136 187.125 70.1178 187.242C70.0997 187.358 70.1109 187.478 70.1504 187.589C70.19 187.701 70.2567 187.8 70.3445 187.88C70.4323 187.959 70.5385 188.015 70.6535 188.043Z" stroke="#818178" stroke-width="2"/>
<path d="M53.5557 253.719C53.6629 254.139 53.9011 254.379 54.2704 254.439C54.4649 254.466 54.7508 254.387 55.128 254.201C55.664 253.935 56.4681 253.648 57.5401 253.339C65.3781 251.077 74.1868 248.098 83.9664 244.402C89.7912 242.209 95.8067 240.283 101.703 238.144C101.808 238.106 101.896 238.033 101.952 237.937C102.008 237.841 102.027 237.729 102.007 237.621C100.875 231.465 99.5648 225.31 98.0759 219.158C97.4445 216.543 97.1289 213.251 97.1289 209.281" stroke="#5D5C57" stroke-width="2"/>
<path d="M97.1288 209.281C88.0798 206.5 79.2492 203.824 70.637 201.253C68.0998 200.493 64.6692 199.898 61.7211 198.87C61.673 198.854 61.6221 198.847 61.5713 198.85C61.5205 198.853 61.4709 198.867 61.4254 198.889C61.3799 198.912 61.3394 198.944 61.3063 198.982C61.2732 199.021 61.2482 199.065 61.2327 199.114C56.2139 214.774 51.3102 230.52 46.5217 246.351C46.1087 247.714 45.7514 249.189 45.4496 250.778C45.4359 250.853 45.4376 250.93 45.4543 251.005C45.4711 251.079 45.5028 251.149 45.5473 251.211C45.5919 251.273 45.6484 251.325 45.7135 251.364C45.7786 251.402 45.8509 251.428 45.9261 251.438C47.8756 251.703 49.8133 252.04 51.739 252.448C52.692 252.65 53.2975 253.074 53.5556 253.719" stroke="#818178" stroke-width="2"/>
<path d="M97.1289 209.281C95.358 212.514 92.7612 215.733 89.3386 218.938C84.6374 223.343 76.6883 231.289 65.4912 242.773C64.0976 244.206 62.3168 245.661 60.804 247.212C58.7135 249.352 55.9261 251.01 54.6575 253.601C54.6175 253.683 54.5517 253.75 54.47 253.792C54.3884 253.834 54.2953 253.848 54.2049 253.832L53.5557 253.719" stroke="#CDCDC1" stroke-width="2"/>
<path d="M110.886 248.466C104.168 251.384 93.5785 254.54 85.1628 257.636C74.5732 261.53 63.9301 265.266 53.2333 268.843C43.2096 272.195 33.5074 275.784 23.6743 279.308C23.3606 279.419 23.2435 279.314 23.3229 278.993C23.5969 277.828 24.3116 276.539 24.5736 275.618C27.1406 266.644 30.0113 257.606 32.5485 248.793C36.0824 236.488 39.7849 224.237 43.6563 212.039C46.0148 204.587 48.4746 195.857 50.7557 189.273C51.0892 188.307 51.8178 187.276 52.9415 186.183C55.0697 184.111 57.1543 181.996 59.1952 179.836C65.6454 173.003 72.2207 166.276 78.6709 159.442C81.8632 156.061 85.4189 153.143 88.5219 149.738C98.4921 138.81 109.058 128.683 119.296 118.124C125.347 111.884 131.827 105.407 137.479 99.4345C144.573 91.9351 151.797 84.5783 158.837 77.0194C173.731 61.0143 188.984 45.3578 204.596 30.0499C211.499 23.2814 219.962 20.2626 229.682 22.0097C233.887 22.7625 237.542 24.6086 240.647 27.5481C246.095 32.7023 254.542 40.9623 265.989 52.3284C269.17 55.4898 272.04 58.3303 274 62.0384C276.744 67.2361 277.605 72.9092 276.585 79.0577C275.775 83.9365 273.392 87.9715 270.206 91.5785C266.216 96.1028 262.068 100.48 257.764 104.711C249.974 112.365 242.321 120.263 234.536 127.816C193.78 167.369 155.406 206.019 116.032 245.269C114.897 246.402 113.181 247.468 110.886 248.466ZM229.039 91.8638C232.565 95.7739 236.379 99.5573 240.48 103.214C240.566 103.29 240.678 103.331 240.792 103.328C240.906 103.325 241.014 103.277 241.094 103.196C247.042 97.1189 252.918 91.1586 258.723 85.3151C262.827 81.1792 265.549 75.6467 263.19 69.8587C262.166 67.3312 261.105 65.5009 260.01 64.3679C255.358 58.8057 250.403 55.0857 245.608 50.2841C241.737 46.4057 237.844 42.5411 233.929 38.6903C228.485 33.3243 220.129 32.7181 214.274 38.1436C208.227 43.7494 202.901 48.9451 198.295 53.7308C197.491 54.5627 196.276 55.5016 195.335 56.5772C195.126 56.8152 195.017 57.1236 195.028 57.4401C195.039 57.7566 195.17 58.0578 195.394 58.2827L229.039 91.8638ZM204.947 105.656C206.865 107.861 209.396 109.959 211.148 111.753C214.268 114.946 217.479 118.048 220.778 121.059C221.314 121.547 221.779 121.917 222.172 122.171C222.696 122.507 223.17 122.448 223.595 121.992L231.195 113.803C231.771 113.185 231.759 112.579 231.159 111.985L215.894 96.8436L185.775 67.2678C185.691 67.1854 185.578 67.1392 185.461 67.1392C185.344 67.1392 185.232 67.1854 185.15 67.2678L176.133 76.2588C175.968 76.4235 175.874 76.6457 175.87 76.8778C175.867 77.11 175.955 77.3335 176.115 77.5008C177.922 79.3905 179.691 81.2544 181.422 83.0927C185.972 87.918 190.892 92.4461 195.597 97.1526C196.978 98.5352 200.095 101.37 204.947 105.656ZM70.6543 188.043L105.907 196.761C106.094 196.808 106.255 196.761 106.39 196.618C119.635 182.582 133.471 169.092 146.943 155.27C151.648 150.439 156.216 145.774 161.291 140.919C164.43 137.918 167.687 134.287 170.356 131.613C177.118 124.831 183.76 117.973 190.284 111.04C190.373 110.946 190.422 110.82 190.42 110.691C190.418 110.562 190.365 110.44 190.272 110.351L168.021 88.946C167.975 88.9013 167.92 88.8674 167.859 88.8471C167.798 88.8267 167.734 88.8202 167.67 88.8282C167.606 88.8362 167.544 88.8584 167.49 88.8932C167.435 88.9279 167.389 88.9744 167.354 89.0292C167.104 89.4373 166.764 89.8651 166.335 90.3128C160.308 96.6237 154.247 102.901 148.152 109.145C144.412 112.983 140.547 116.692 136.842 120.566C134.799 122.699 132.31 124.833 130.148 127.085C123.006 134.549 115.472 141.579 108.319 149.025C102.917 154.646 97.146 159.953 91.6726 165.456C85.5499 171.612 79.4094 177.858 73.0664 183.794C72.0579 184.737 71.1208 185.779 70.2552 186.92C70.1837 187.014 70.1368 187.125 70.1186 187.241C70.1005 187.358 70.1117 187.477 70.1513 187.589C70.1908 187.7 70.2575 187.8 70.3453 187.879C70.4331 187.959 70.5393 188.015 70.6543 188.043ZM53.5549 253.72C53.6621 254.139 53.9004 254.379 54.2696 254.439C54.4642 254.466 54.7501 254.387 55.1273 254.201C55.6633 253.935 56.4674 253.648 57.5394 253.339C65.3774 251.077 74.1861 248.098 83.9657 244.402C89.7905 242.209 95.806 240.284 101.702 238.144C101.807 238.106 101.896 238.033 101.951 237.937C102.007 237.841 102.026 237.729 102.006 237.621C100.874 231.465 99.5641 225.31 98.0751 219.158C97.4438 216.543 97.1282 213.251 97.1282 209.282C88.0792 206.5 79.2486 203.824 70.6364 201.253C68.0992 200.493 64.6686 199.898 61.7204 198.87C61.6724 198.854 61.6215 198.847 61.5707 198.85C61.5199 198.853 61.4703 198.867 61.4248 198.889C61.3792 198.912 61.3387 198.944 61.3056 198.982C61.2726 199.021 61.2475 199.066 61.2321 199.114C56.2133 214.774 51.3096 230.52 46.521 246.351C46.1081 247.714 45.7508 249.189 45.449 250.778C45.4353 250.853 45.4369 250.93 45.4537 251.005C45.4705 251.079 45.5021 251.149 45.5467 251.211C45.5912 251.273 45.6478 251.325 45.7129 251.364C45.778 251.403 45.8503 251.428 45.9255 251.438C47.875 251.703 49.8127 252.04 51.7384 252.448C52.6913 252.65 53.2969 253.074 53.5549 253.72Z" fill="#11100E"/>
<path d="M260.009 64.3678C261.105 65.5009 262.165 67.3312 263.189 69.8587C265.548 75.6467 262.826 81.1792 258.722 85.3151C252.917 91.1586 247.041 97.1189 241.093 103.196C241.014 103.277 240.906 103.325 240.791 103.328C240.677 103.331 240.565 103.29 240.479 103.214C236.378 99.5573 232.564 95.7739 229.038 91.8638C229.904 90.9526 230.781 90.1147 231.671 89.3501C234.97 86.4977 239.258 82.3637 244.535 76.9481C245.246 76.2152 246.721 74.8326 248.961 72.8002C251.641 70.3757 254.094 67.1727 256.971 64.558C257.595 63.9875 258.607 63.9241 260.009 64.3678Z" fill="#A9A89F"/>
<path d="M215.894 96.8435L231.159 111.985C231.759 112.579 231.771 113.185 231.195 113.803L223.595 121.992C223.17 122.448 222.696 122.507 222.172 122.17C221.779 121.917 221.314 121.546 220.778 121.059C217.478 118.048 214.268 114.946 211.147 111.753C209.396 109.959 206.865 107.861 204.947 105.656C205.408 105.831 205.69 105.706 205.793 105.282C206.063 104.161 206.516 103.271 207.151 102.614C209.156 100.526 211.157 98.4896 213.154 96.5048C213.245 96.4141 213.363 96.3557 213.49 96.3385C213.617 96.3213 213.746 96.3464 213.857 96.4097C214.997 97.0753 215.676 97.2199 215.894 96.8435Z" fill="#A9A89F"/>
<path d="M97.1289 209.281C97.1289 213.251 97.4445 216.543 98.0759 219.158C99.5648 225.31 100.875 231.465 102.007 237.621C102.027 237.729 102.008 237.841 101.952 237.937C101.896 238.033 101.808 238.106 101.703 238.144C95.8067 240.283 89.7912 242.209 83.9664 244.402C74.1868 248.098 65.3781 251.077 57.5401 253.339C56.4681 253.648 55.664 253.935 55.128 254.201C54.7508 254.387 54.4649 254.466 54.2704 254.439C53.9011 254.379 53.6629 254.139 53.5557 253.719L54.2049 253.832C54.2953 253.848 54.3884 253.834 54.47 253.792C54.5517 253.75 54.6175 253.683 54.6575 253.601C55.9261 251.01 58.7135 249.352 60.804 247.212C62.3168 245.661 64.0976 244.206 65.4912 242.773C76.6883 231.289 84.6374 223.343 89.3386 218.938C92.7612 215.733 95.358 212.514 97.1289 209.281Z" fill="#A9A89F"/>
</svg>
